<?xml version="1.0" encoding="UTF-8"?>
<svg version="1.1" xmlns="http://www.w3.org/2000/svg" width="1024" height="1024">
<style>
  path { fill: none; stroke: #18181b; stroke-opacity: 0.35; stroke-width: 22; stroke-linejoin: round; }
</style>
<path d="M0 0 C337.92 0 675.84 0 1024 0 C1024 337.92 1024 675.84 1024 1024 C686.08 1024 348.16 1024 0 1024 C0 686.08 0 348.16 0 0 Z " fill="#FDFEFE" transform="translate(0,0)" style="display:none"/>
<path d="M0 0 C3.63982081 2.90192342 7.32478898 5.74584445 11.00390625 8.59765625 C16.45494524 12.83064698 21.89471137 17.07715364 27.31640625 21.34765625 C36.28582425 28.40159319 36.28582425 28.40159319 45.34326172 35.34179688 C46.4773764 36.19946902 47.60911369 37.06029161 48.73876953 37.92382812 C66.7728631 51.64228296 84.5640783 54.3855369 106.79443359 55.77612305 C107.67695801 55.840979 108.55948242 55.90583496 109.46875 55.97265625 C110.24855225 56.02164063 111.02835449 56.070625 111.83178711 56.12109375 C114.63988251 56.73718931 115.99771742 57.52732003 118.00390625 59.59765625 C118.75390625 62.78515625 118.75390625 62.78515625 119.00390625 65.59765625 C119.87828339 65.54127991 119.87828339 65.54127991 120.77032471 65.48376465 C154.12477312 63.35911383 187.33363343 62.30934095 220.75390625 62.41015625 C221.61133926 62.4127243 222.46877228 62.41529236 223.35218811 62.41793823 C233.90295855 62.45190495 244.45343172 62.51182676 255.00390625 62.59765625 C254.42640625 61.46585937 253.84890625 60.3340625 253.25390625 59.16796875 C252.50369634 57.68630418 251.75370778 56.20452752 251.00390625 54.72265625 C250.62234375 53.97628906 250.24078125 53.22992188 249.84765625 52.4609375 C249.48671875 51.74550781 249.12578125 51.03007812 248.75390625 50.29296875 C248.41875 49.63312988 248.08359375 48.97329102 247.73828125 48.29345703 C247.00390625 46.59765625 247.00390625 46.59765625 247.00390625 44.59765625 C249.63183594 44.10375977 249.63183594 44.10375977 253.00390625 44.59765625 C254.37463379 46.07247925 254.37463379 46.07247925 255.72753906 48.04272461 C260.25469513 54.51513593 264.86833895 59.58905146 272.77709961 61.5178833 C283.38203745 63.03054179 294.28004649 62.48679803 304.95415497 62.21995926 C309.67560704 62.1191085 314.39726594 62.11047605 319.11962891 62.09155273 C328.03836256 62.0420592 336.95391283 61.91110308 345.87125206 61.7499609 C356.03300894 61.57036562 366.19492775 61.48296435 376.35787964 61.40283394 C397.24165719 61.23613313 418.12258025 60.95518728 439.00390625 60.59765625 C438.49859375 59.61023438 437.99328125 58.6228125 437.47265625 57.60546875 C436.81619612 56.31130449 436.15995758 55.0170278 435.50390625 53.72265625 C435.00310547 52.74619141 435.00310547 52.74619141 434.4921875 51.75 C432.00390625 46.82421875 432.00390625 46.82421875 432.00390625 44.59765625 C434.66802979 44.13435364 434.66802979 44.13435364 438.00390625 44.59765625 C439.52616733 46.2283815 440.64269354 48.00451881 441.87585831 49.86267567 C445.39764386 54.89850147 449.09249628 58.80501666 455.15058899 60.45434952 C463.96011367 61.6353182 472.84399128 61.32278961 481.7065134 61.05270219 C485.61999063 60.95031523 489.5338211 60.93668925 493.44842529 60.91349792 C500.86199086 60.85678499 508.27216206 60.72544846 515.68413043 60.56485814 C526.51410564 60.33371537 537.34543954 60.21948125 548.17712021 60.10017681 C549.79026103 60.08220402 551.40340114 60.06416765 553.01654053 60.04606628 C553.80571735 60.03731073 554.59489418 60.02855517 555.40798545 60.01953429 C560.03879149 59.96572266 564.66872844 59.89191898 569.2989285 59.79988915 C588.01889914 59.42858167 606.26975672 59.25351917 624.50390625 64.22265625 C625.46530518 64.48062988 626.4267041 64.73860352 627.41723633 65.00439453 C641.52882711 68.96353487 654.20237023 74.87621868 666.00390625 83.59765625 C666.72755371 84.1272998 667.45120117 84.65694336 668.19677734 85.20263672 C672.24105315 88.16320049 676.27298683 91.13936243 680.29296875 94.1328125 C681.06914551 94.70249756 681.84532227 95.27218262 682.64501953 95.85913086 C684.21787294 97.01834108 685.77890442 98.19376484 687.32763672 99.38500977 C694.04510055 104.38578839 701.10388008 107.38596466 708.87890625 110.41015625 C711.4586052 111.44292317 714.03268782 112.48919403 716.60546875 113.5390625 C717.23916382 113.79718719 717.87285889 114.05531189 718.52575684 114.32125854 C747.37020904 126.14711044 747.37020904 126.14711044 755.00390625 137.59765625 C755.52564317 141.67669038 755.01892578 145.23709816 752.53515625 148.56640625 C747.41379515 153.35194039 741.47871583 156.08504358 735.00390625 158.59765625 C734.14667969 158.94570313 733.28945313 159.29375 732.40625 159.65234375 C715.31318945 165.99768133 696.01757008 167.57438241 678.00390625 169.59765625 C677.04999402 169.71969358 677.04999402 169.71969358 676.07681084 169.84419632 C668.24026979 170.7576667 660.42453565 170.73158225 652.54833984 170.71118164 C651.00993858 170.71089907 649.47153718 170.71105887 647.93313599 170.71162415 C643.78508812 170.71190939 639.63706955 170.70605693 635.48902845 170.69905019 C631.14353556 170.69277107 626.79804189 170.69220926 622.45254517 170.69102478 C614.23636735 170.68792485 606.02020294 170.6797296 597.80403101 170.66967529 C588.44484964 170.65847247 579.08566761 170.65299322 569.7264812 170.64797986 C550.4856153 170.63754579 531.24476186 170.61997241 512.00390625 170.59765625 C511.70734131 171.21640625 511.41077637 171.83515625 511.10522461 172.47265625 C509.8632524 174.86904865 508.3789377 176.6019227 506.56640625 178.59765625 C504.72881464 180.62972299 503.03487039 182.5512911 501.51171875 184.83203125 C500.76535156 185.70601562 500.76535156 185.70601562 500.00390625 186.59765625 C496.31640625 186.84765625 496.31640625 186.84765625 493.00390625 186.59765625 C494.14037269 182.90414033 495.50028749 179.39534434 497.08203125 175.875 C497.44200195 175.0718335 497.80197266 174.26866699 498.17285156 173.44116211 C498.44709961 172.83280518 498.72134766 172.22444824 499.00390625 171.59765625 C495.85705744 171.68686311 492.71229235 171.79396673 489.56640625 171.91015625 C488.70724609 171.93271484 487.84808594 171.95527344 486.96289062 171.97851562 C472.74807601 172.54300285 458.9338043 175.98939993 445.16601562 179.32833862 C430.8583322 182.77945179 416.54224242 185.73620736 402.00390625 188.03515625 C401.25057007 188.15444489 400.49723389 188.27373352 399.72106934 188.39663696 C385.52323511 190.62482259 371.27881889 192.49885176 357.00390625 194.16015625 C355.9571875 194.28583984 354.91046875 194.41152344 353.83203125 194.54101562 C337.54433862 196.43793593 321.38441759 196.83880533 305.00390625 196.84765625 C303.30899048 196.84866837 303.30899048 196.84866837 301.57983398 196.84970093 C269.82510824 196.81993991 237.95417337 195.62329189 206.60742188 190.22387695 C182.46297801 186.31402124 157.28426594 188.88724622 132.93909454 189.8092308 C129.29138785 189.94633345 125.64352407 190.07899417 121.99566078 190.21185398 C103.68977313 190.87997056 85.38751282 191.59906313 67.08984375 192.46484375 C65.6001038 192.53511762 64.1103628 192.60536926 62.62062073 192.67559814 C61.89212386 192.70994587 61.163627 192.74429359 60.41305447 192.77968216 C36.13075634 193.92360112 11.88233823 194.88492907 -12.43359375 194.91015625 C-13.49253845 194.91365082 -14.55148315 194.91714539 -15.64251709 194.92074585 C-26.43887664 194.9408895 -37.14806659 194.64974422 -47.90625 193.703125 C-48.78961533 193.62588699 -49.67298065 193.54864899 -50.58311462 193.46907043 C-67.56063257 191.80731305 -67.56063257 191.80731305 -72.99609375 185.59765625 C-75.64724559 182.17549093 -78.07806468 178.62460318 -80.49609375 175.03515625 C-81.91233116 172.96455009 -83.32900623 170.89424321 -84.74609375 168.82421875 C-85.45507812 167.78297852 -86.1640625 166.74173828 -86.89453125 165.66894531 C-90.05303282 161.05301248 -93.27585388 156.48310843 -96.49609375 151.91015625 C-110.99609375 131.21765976 -110.99609375 131.21765976 -110.99609375 128.59765625 C-111.65609375 128.59765625 -112.31609375 128.59765625 -112.99609375 128.59765625 C-112.99609375 127.60765625 -112.99609375 126.61765625 -112.99609375 125.59765625 C-109.28791078 125.5100932 -105.57999612 125.4570761 -101.87109375 125.41015625 C-100.824375 125.38501953 -99.77765625 125.35988281 -98.69921875 125.33398438 C-90.57263082 125.25683322 -85.85717436 126.81440762 -79.55859375 132.03515625 C-78.69878906 132.73898437 -77.83898437 133.4428125 -76.953125 134.16796875 C-75.97730469 134.96976563 -75.00148438 135.7715625 -73.99609375 136.59765625 C-71.58511754 138.54228336 -69.16569279 140.47627482 -66.74609375 142.41015625 C-66.10687988 142.92247803 -65.46766602 143.4347998 -64.80908203 143.96264648 C-61.69207727 146.45788959 -58.56651021 148.94026982 -55.4140625 151.390625 C-49.35888662 156.09813956 -43.42365331 160.89298736 -37.62109375 165.91015625 C-36.4507206 166.91169182 -35.28015575 167.91300344 -34.109375 168.9140625 C-32.28274353 170.47764157 -30.49612966 172.05803626 -28.7265625 173.6875 C-23.33063633 178.35810819 -18.9035908 177.9446058 -11.99609375 177.59765625 C-7.57151757 177.27699518 -3.15895395 176.87477929 1.25439453 176.42578125 C3.23669799 176.22440439 5.21991461 176.03208373 7.203125 175.83984375 C13.48219458 175.21753755 19.73760467 174.5177975 25.98828125 173.6484375 C36.62819537 172.19438077 47.3179389 171.2093265 58.00390625 170.16015625 C60.22706914 169.94004536 62.45021355 169.71974777 64.67333984 169.49926758 C81.44753363 167.83829934 98.22406326 166.20058439 115.00390625 164.59765625 C112.12560559 162.67878915 110.79113704 162.19568157 107.5078125 161.58984375 C106.57654541 161.41235596 105.64527832 161.23486816 104.68579102 161.05200195 C103.65639404 160.86081787 102.62699707 160.66963379 101.56640625 160.47265625 C78.15689997 155.94460901 54.92127491 150.57707422 31.71530151 145.11068726 C29.94566486 144.69426584 28.1756016 144.279652 26.40505981 143.86709595 C13.78010809 140.91965944 1.37439415 137.47528087 -10.99609375 133.59765625 C-11.74991333 133.36205994 -12.50373291 133.12646362 -13.28039551 132.88372803 C-17.54870487 131.54452866 -21.80587807 130.17471171 -26.0546875 128.77490234 C-27.44846881 128.31810303 -28.84403574 127.86672107 -30.24121094 127.42041016 C-53.14271792 120.10099156 -53.14271792 120.10099156 -58.22265625 110.6796875 C-59.57741738 107.03278001 -59.50498445 104.47794783 -58.99609375 100.59765625 C-57.59991825 97.67838021 -56.27406379 95.87562629 -53.99609375 93.59765625 C-54.57556763 92.67206909 -54.57556763 92.67206909 -55.16674805 91.7277832 C-68.05027148 71.1442003 -80.86609182 50.525204 -93.43701172 29.74902344 C-93.79163986 29.16337616 -94.14626801 28.57772888 -94.51164246 27.97433472 C-95.47993614 26.37500284 -96.4473928 24.77516429 -97.41479492 23.17529297 C-100.5709839 18.03046617 -102.781211 16.72076804 -108.43359375 15.03515625 C-115.64565707 12.8312807 -115.64565707 12.8312807 -118.99609375 10.59765625 C-121.50095322 10.38525081 -123.89851221 10.28644309 -126.4050293 10.27880859 C-127.15649231 10.26876297 -127.90795532 10.25871735 -128.68218994 10.24836731 C-131.16572302 10.21747968 -133.64914803 10.20048486 -136.1328125 10.18359375 C-137.85489333 10.16488657 -139.57696495 10.1453135 -141.29902649 10.12490845 C-145.83141659 10.07353362 -150.36383643 10.03393659 -154.8963623 9.99676514 C-159.52147815 9.95675899 -164.14646973 9.90565121 -168.77148438 9.85546875 C-177.84626694 9.75864614 -186.92111958 9.67426166 -195.99609375 9.59765625 C-196.32609375 8.27765625 -196.65609375 6.95765625 -196.99609375 5.59765625 C-188.11890716 0.16264405 -180.75295543 -0.74848144 -170.43359375 -1.02734375 C-169.25369873 -1.06529053 -168.07380371 -1.1032373 -166.8581543 -1.14233398 C-155.90351112 -1.46675797 -144.95425046 -1.50206408 -133.99609375 -1.40234375 C-134.05796875 -2.16546875 -134.11984375 -2.92859375 -134.18359375 -3.71484375 C-133.99609375 -6.40234375 -133.99609375 -6.40234375 -132.78662109 -8.01049805 C-130.53420541 -9.7613873 -128.98360086 -9.99083843 -126.16015625 -10.359375 C-125.13817139 -10.49956055 -124.11618652 -10.63974609 -123.06323242 -10.78417969 C-121.92732666 -10.92629883 -120.7914209 -11.06841797 -119.62109375 -11.21484375 C-118.41880127 -11.3737207 -117.21650879 -11.53259766 -115.9777832 -11.69628906 C-113.95988091 -11.96290084 -111.94193976 -12.22926473 -109.92323303 -12.48971558 C-104.88134299 -13.14190175 -99.84877846 -13.84741988 -94.81732178 -14.57557678 C-29.85875175 -23.97283765 -29.85875175 -23.97283765 0 0 Z " fill="#0C0B0B" transform="translate(232.99609375,416.40234375)"/>
<path d="M0 0 C1.92880952 1.57698804 3.85297142 3.15947505 5.77587891 4.74365234 C8.53553052 6.99174456 11.35643947 9.1555015 14.1875 11.3125 C18.58783022 14.67686753 22.96122399 18.072417 27.3125 21.5 C28.4856478 22.42191226 29.65882569 23.34378624 30.83203125 24.265625 C32.80365102 25.81538802 34.77335979 27.36742724 36.73974609 28.92382812 C64.43110552 50.83213017 84.46527241 58.32607346 119.625 62.25 C119.955 63.57 120.285 64.89 120.625 66.25 C119.71621094 66.42015625 118.80742187 66.5903125 117.87109375 66.765625 C108.66188974 68.54134844 99.65879222 70.72566374 90.625 73.25 C94.29189972 73.10969417 97.95845412 72.96174579 101.625 72.8125 C102.65496094 72.77318359 103.68492187 72.73386719 104.74609375 72.69335938 C105.75800781 72.65146484 106.76992188 72.60957031 107.8125 72.56640625 C108.73417969 72.52974854 109.65585937 72.49309082 110.60546875 72.45532227 C112.77365406 72.30788987 114.93653692 72.0727428 117.09014893 71.78167725 C177.23258402 64.18276551 239.76139705 67.51762008 300.24664241 67.14215291 C310.14811559 67.08061333 320.04954125 67.01369851 329.95095825 66.94372559 C398.1017393 66.46355244 466.25360969 66.05661847 534.4062351 66.00649041 C539.49043187 66.00269363 544.57461725 65.99646795 549.65880853 65.98811835 C558.27328808 65.97404498 566.88767577 65.97092823 575.50216103 65.98117256 C578.26885316 65.98419456 581.03548715 65.98305119 583.80217552 65.97773552 C607.89532386 65.9446388 631.44936604 66.82446111 653.625 77.25 C649.96054206 79.52211451 646.59153698 79.65318616 642.33984375 79.92578125 C640.90813658 80.03231253 639.47649749 80.13976214 638.04492188 80.24804688 C635.79821855 80.40924642 633.55173548 80.56315962 631.3034668 80.70092773 C629.12600705 80.83816359 626.9523746 81.00475558 624.77734375 81.17578125 C623.47788818 81.26255127 622.17843262 81.34932129 620.83959961 81.4387207 C617.48372012 81.94572529 617.48372012 81.94572529 615.70532227 84.60229492 C614.27538192 88.10686059 614.16333359 90.49071639 614.625 94.25 C617.80673683 100.36872468 622.25031087 104.57955527 628.6875 106.9375 C638.74728439 109.8147798 648.5512891 110.49624312 658.94921875 109.953125 C687.04458867 108.9251756 710.00567587 109.28105819 734.83477783 123.25732422 C736.76367826 124.32689691 738.71313361 125.34850625 740.67138672 126.36328125 C741.34676987 126.7149939 742.02215302 127.06670654 742.71800232 127.42907715 C744.00673928 128.10006925 745.29658979 128.76892896 746.58778381 129.43518066 C750.26300531 131.37679996 753.55022595 133.44201369 756.625 136.25 C756.625 136.91 756.625 137.57 756.625 138.25 C726.71753496 138.56466255 696.86218586 138.00821197 666.97061634 137.11487293 C646.40782076 136.50161991 625.84699077 136.08593763 605.27734375 135.7734375 C583.60101909 135.44355435 561.92733792 135.0516374 540.25390625 134.56640625 C539.5823183 134.55137637 538.91073035 134.53634648 538.21879125 134.52086115 C529.98422664 134.33625918 521.74974632 134.14805654 513.51530212 133.95816636 C508.51027175 133.84277975 503.50521885 133.72841214 498.50015259 133.61459351 C452.53985287 132.56908193 406.58110173 131.46739563 360.625 130.25 C360.625 129.59 360.625 128.93 360.625 128.25 C361.285 128.25 361.945 128.25 362.625 128.25 C363.7642519 124.14139752 363.82293503 120.14538034 363.86328125 115.90625 C363.871353 115.10014282 363.87942474 114.29403564 363.88774109 113.46350098 C363.90154304 111.76231007 363.91228251 110.06109191 363.92016602 108.35986328 C363.93172255 106.61987195 363.95223199 104.87991706 363.98168945 103.14013672 C364.02427613 100.62442978 364.04051838 98.10977217 364.05078125 95.59375 C364.07704338 94.42954529 364.07704338 94.42954529 364.10383606 93.24182129 C364.08942751 89.65858089 363.94860017 87.66844922 361.72338867 84.79101562 C356.51872098 80.9688094 350.56031159 81.98588264 344.3125 81.9375 C343.07564453 81.90849609 341.83878906 81.87949219 340.56445312 81.84960938 C338.77491211 81.83704102 338.77491211 81.83704102 336.94921875 81.82421875 C335.85697998 81.80963623 334.76474121 81.79505371 333.6394043 81.7800293 C329.7405577 82.38789191 328.19295787 83.23930088 325.625 86.25 C325.15414138 89.29725125 324.99202145 91.77344293 325.06640625 94.8125 C325.06990334 96.05495483 325.06990334 96.05495483 325.07347107 97.32250977 C325.08319925 99.07090578 325.10496531 100.81927069 325.13793945 102.56738281 C325.18732837 105.24071009 325.19941967 107.91219525 325.20507812 110.5859375 C325.21916586 112.28647787 325.23537089 113.98700229 325.25390625 115.6875 C325.2619503 116.88451538 325.2619503 116.88451538 325.27015686 118.10571289 C325.35461742 122.05511511 325.7069811 124.81313546 327.625 128.25 C303.60310045 128.38262299 279.62171463 128.07157628 255.60998535 127.38116455 C252.34637454 127.28865858 249.08262947 127.20149825 245.81887245 127.11432838 C229.07880612 126.66602222 212.34732987 126.16688371 195.625 125.25 C195.64071045 124.36328613 195.6564209 123.47657227 195.67260742 122.56298828 C195.72418409 119.22682678 195.76156491 115.89109792 195.78979492 112.5546875 C195.80474586 111.1193975 195.82511424 109.68415209 195.85131836 108.24902344 C196.35497302 94.05992199 196.35497302 94.05992199 190.45727539 81.6237793 C180.74214923 73.48136298 164.48547759 74.63442572 152.5 74.8125 C151.64172607 74.81965027 150.78345215 74.82680054 149.89916992 74.83416748 C136.582284 74.9495442 123.72645494 75.76943428 110.625 78.25 C108.16940612 78.68045996 105.71366568 79.11008433 103.2578125 79.5390625 C77.07026813 82.34898968 77.07026813 82.34898968 54.625 92.25 C54.46813751 93.80948542 54.37423361 95.37542668 54.30859375 96.94140625 C54.26669922 97.88564453 54.22480469 98.82988281 54.18164062 99.80273438 C54.14232422 100.79595703 54.10300781 101.78917969 54.0625 102.8125 C53.99772461 104.30813477 53.99772461 104.30813477 53.93164062 105.83398438 C53.82519702 108.3058415 53.72318072 110.7778031 53.625 113.25 C40.24774264 113.76882763 27.04104776 112.20150379 13.75 110.875 C9.1903588 110.42706251 4.63033997 109.98304731 0.0703125 109.5390625 C-1.59846954 109.37485809 -1.59846954 109.37485809 -3.30096436 109.20733643 C-12.20783047 108.33884373 -21.12191548 107.58605634 -30.04586792 106.91543579 C-30.98222076 106.84198944 -31.91857361 106.76854309 -32.88330078 106.69287109 C-33.70565216 106.63102631 -34.52800354 106.56918152 -35.37527466 106.50546265 C-37.375 106.25 -37.375 106.25 -39.375 105.25 C-39.8125 102.5625 -39.8125 102.5625 -39.375 99.25 C-34.45550876 95.01032492 -30.45335947 93.37471248 -24.10546875 92.44921875 C-23.34325516 92.32311722 -22.58104156 92.19701569 -21.79573059 92.0670929 C-19.38709717 91.67300286 -16.97530524 91.30508051 -14.5625 90.9375 C-12.92485784 90.67290421 -11.28748384 90.40664309 -9.65039062 90.13867188 C2.01945246 88.25 2.01945246 88.25 4.625 88.25 C-1.55462378 80.31543774 -8.1055829 72.74061766 -14.71240234 65.16259766 C-17.30212649 62.18346418 -19.87094815 59.18659778 -22.4375 56.1875 C-22.92831055 55.61418945 -23.41912109 55.04087891 -23.92480469 54.45019531 C-24.91369602 53.29486336 -25.9024659 52.13942743 -26.89111328 50.98388672 C-29.38395527 48.0710595 -31.87966074 45.16068779 -34.375 42.25 C-34.86500488 41.67822021 -35.35500977 41.10644043 -35.85986328 40.51733398 C-38.44564373 37.50002437 -41.03254911 34.48368869 -43.62109375 31.46875 C-44.15541016 30.84613281 -44.68972656 30.22351563 -45.24023438 29.58203125 C-46.25290832 28.40204596 -47.26590404 27.22233671 -48.27929688 26.04296875 C-48.74271484 25.50285156 -49.20613281 24.96273437 -49.68359375 24.40625 C-50.14306396 23.88393799 -50.60253418 23.36162598 -51.07592773 22.82348633 C-52.375 21.25 -52.375 21.25 -54.5 17.98046875 C-58.79530959 13.90109184 -63.201695 13.76276865 -68.9375 13.0625 C-71.09682671 12.75196625 -73.25569092 12.43819815 -75.4140625 12.12109375 C-76.9594873 11.90235596 -76.9594873 11.90235596 -78.53613281 11.67919922 C-83.52807622 10.92448332 -88.64246287 10.04068972 -93.375 8.25 C-93.705 7.59 -94.035 6.93 -94.375 6.25 C-93.44427673 6.24191315 -92.51355347 6.23382629 -91.55462646 6.22549438 C-82.78492902 6.14802144 -74.01538651 6.06027923 -65.24589157 5.96247292 C-60.73736399 5.91251957 -56.22885972 5.86618943 -51.72021484 5.828125 C-47.36940881 5.79126006 -43.01879833 5.74489679 -38.66815948 5.69193649 C-37.00801269 5.67339897 -35.34782398 5.65828862 -33.68761444 5.64665604 C-31.36282816 5.62978251 -29.03848912 5.60074523 -26.71386719 5.56884766 C-26.0269429 5.56668747 -25.34001862 5.56452728 -24.63227844 5.56230164 C-21.05189936 5.49951182 -18.42668157 5.19045764 -15.375 3.25 C-15.72286708 1.27463255 -15.72286708 1.27463255 -16.375 -0.75 C-19.75683138 -2.44091569 -23.60084467 -1.93101108 -27.32275391 -1.95532227 C-28.24963516 -1.96522186 -29.17651642 -1.97512146 -30.13148499 -1.98532104 C-33.20481789 -2.0169882 -36.27816628 -2.04171408 -39.3515625 -2.06640625 C-41.47863168 -2.08697127 -43.60569674 -2.10796762 -45.73275757 -2.12937927 C-51.33871116 -2.18464658 -56.94470192 -2.2340353 -62.55072021 -2.28222656 C-68.26822223 -2.3324076 -73.9856701 -2.38811138 -79.703125 -2.44335938 C-90.9270371 -2.55099793 -102.15099617 -2.65243022 -113.375 -2.75 C-113.045 -3.41 -112.715 -4.07 -112.375 -4.75 C-109.74902344 -5.29663086 -109.74902344 -5.29663086 -106.234375 -5.71484375 C-104.9457959 -5.87355957 -103.6572168 -6.03227539 -102.32958984 -6.19580078 C-101.64322449 -6.27606506 -100.95685913 -6.35632935 -100.24969482 -6.43902588 C-97.40583708 -6.77160308 -94.5644998 -7.12364768 -91.72286987 -7.47467041 C-90.29634278 -7.65064603 -88.86968558 -7.82557009 -87.44290161 -7.99945068 C-81.53451392 -8.72084901 -75.64063716 -9.52192672 -69.75 -10.375 C-68.4822876 -10.55530762 -68.4822876 -10.55530762 -67.18896484 -10.73925781 C-63.73849429 -11.23524137 -60.30647284 -11.76231347 -56.875 -12.37890625 C-35.08674841 -16.27355622 -17.43776014 -14.07137148 0 0 Z " fill="#FBFBFB" transform="translate(222.375,418.75)"/>
<path d="M0 0 C12.98809002 0.9856642 25.97059791 2.02916083 38.94596291 3.1699791 C42.67772851 3.49748552 46.40983429 3.81577926 50.14404297 4.11425781 C53.7919825 4.4061489 57.43730188 4.72075541 61.08192062 5.05146027 C62.46312066 5.17279774 63.84506313 5.28597731 65.22761917 5.39073944 C67.15044592 5.53784645 69.07074645 5.71692141 70.99072266 5.89746094 C72.6273436 6.03616608 72.6273436 6.03616608 74.29702759 6.17767334 C77 7 77 7 78.74897766 9.50396729 C79.36823372 10.73950348 79.36823372 10.73950348 80 12 C82.01707762 13.13186336 82.01707762 13.13186336 84.37890625 13.625 C85.26852051 13.85445312 86.15813477 14.08390625 87.07470703 14.3203125 C88.04005371 14.54460938 89.00540039 14.76890625 90 15 C91.00272949 15.24492188 92.00545898 15.48984375 93.03857422 15.7421875 C96.33159093 16.52785421 99.63151942 17.27086793 102.9375 18 C104.11884521 18.26127686 105.30019043 18.52255371 106.51733398 18.79174805 C123.11614311 22.39969537 139.68069628 25.1025898 156.6953125 25.23828125 C158.18198929 25.25038887 158.18198929 25.25038887 159.69869995 25.26274109 C161.78446761 25.27648199 163.8702568 25.28724813 165.95605469 25.29516602 C168.05801131 25.30666362 170.15993924 25.32708001 172.26171875 25.35668945 C185.71484661 25.54553119 198.82805306 25.57150134 211.35137939 19.9432373 C214.27949928 18.9004636 216.42774679 18.78626787 219.52685547 18.84887695 C220.61344452 18.86582108 221.70003357 18.8827652 222.81954956 18.90022278 C223.99027008 18.92928207 225.1609906 18.95834137 226.3671875 18.98828125 C227.59293488 19.01093552 228.81868225 19.03358978 230.08157349 19.05693054 C234.01297886 19.13238295 237.94390196 19.22257607 241.875 19.3125 C244.45180582 19.36222215 247.02862888 19.41105914 249.60546875 19.45898438 C260.95880163 19.68172482 272.30166985 19.97464271 283.64453125 20.515625 C295.42262704 21.07463019 307.19806848 21.23938977 318.98748779 21.38815308 C342.53340652 21.69192169 366.06902269 22.2014507 389.60715866 22.87285233 C428.26541402 23.9748546 466.92766767 24.78507233 505.593647 25.56251717 C519.3085245 25.83844365 533.02298391 26.12872851 546.73716164 26.43748283 C555.15806378 26.62695841 563.57901991 26.81402362 572 27 C572.9267667 27.02047771 573.8535334 27.04095543 574.80838394 27.06205368 C601.39038898 27.64738952 627.9733487 28.12713827 654.55859375 28.53515625 C655.64120633 28.55181249 655.64120633 28.55181249 656.74568987 28.56880522 C671.17527088 28.79077059 685.60490047 29.0090967 700.03473324 29.21410471 C706.10454423 29.30040285 712.17430905 29.38964499 718.24406624 29.47964287 C720.73732807 29.51592768 723.23060779 29.55100914 725.72390556 29.58473396 C741.16563331 29.79365105 756.57570694 30.22667252 772 31 C748.95121386 54.04878614 676.68742946 46.48699273 646.96981812 46.59506226 C639.38312947 46.62277218 631.79672742 46.67528507 624.21020508 46.73168945 C604.60515604 46.87382212 585.00010966 46.99416898 565.39458656 47.04240417 C558.72609217 47.05976079 552.05786923 47.09521651 545.38954735 47.14624023 C541.74207482 47.17308979 538.09532198 47.18990129 534.44775391 47.17779541 C515.16481908 47.11858799 497.68387581 49.43220785 479 54 C476.75910499 54.53565013 474.51798079 55.07034255 472.27661133 55.60400391 C471.24636841 55.85034073 470.21612549 56.09667755 469.15466309 56.35047913 C457.37869025 59.16545192 445.55936002 61.42096836 433.625 63.4375 C432.82448212 63.57518799 432.02396423 63.71287598 431.19918823 63.85473633 C428.91810506 64.24467612 426.63538521 64.62257291 424.3515625 64.99609375 C423.66732712 65.11343369 422.98309174 65.23077362 422.27812195 65.35166931 C418.92306973 65.88358173 416.2295562 66.17973487 413 65 C413.78375 64.4225 414.5675 63.845 415.375 63.25 C418.49925479 60.61358712 418.49925479 60.61358712 420 57 C419.92839602 52.99017731 419.74126401 50.81075752 417 47.8125 C408.22862852 42.51312973 399.46974144 40.7820413 389.4375 39.3125 C388.05255893 39.09944463 386.66779129 38.88525872 385.28320312 38.66992188 C381.52511955 38.09114653 377.76523284 37.53076266 374 37 C372.71706055 36.81606689 371.43412109 36.63213379 370.11230469 36.44262695 C365.72179725 35.90580428 361.37581675 35.85636798 356.95703125 35.8671875 C355.66128929 35.8648687 355.66128929 35.8648687 354.33937073 35.86250305 C351.49703129 35.860027 348.65482642 35.86633347 345.8125 35.875 C344.81994202 35.87754791 343.82738403 35.88009583 342.80474854 35.88272095 C336.54686025 35.90134524 330.28919186 35.93657544 324.03143311 35.98040771 C321.16695023 35.99892099 318.30250942 36.01127674 315.43798828 36.02197266 C286.42818614 36.15526838 257.68644769 38.22430026 228.8125 40.84375 C227.69066315 40.94480545 226.56882629 41.0458609 225.41299438 41.14997864 C224.37565155 41.24679428 223.33830872 41.34360992 222.26953125 41.44335938 C221.36823486 41.52694702 220.46693848 41.61053467 219.53833008 41.69665527 C216.98754677 42.00148823 214.51772817 42.49586802 212 43 C208.59823498 43.24865694 205.20113913 43.43779716 201.79492188 43.60546875 C197.94180862 43.77995968 197.94180862 43.77995968 194.16723633 44.50170898 C184.18916723 46.79586681 173.92518333 44.44883791 164.25 41.9375 C161.62202221 41.28877669 158.9934305 40.64366 156.36328125 40.00390625 C155.68672989 39.83802002 155.01017853 39.67213379 154.31312561 39.5012207 C146.39903619 37.57773283 138.42089405 35.98063606 130.4375 34.375 C120.44852436 32.35514741 110.49434917 30.2603509 100.5949707 27.83227539 C95.05331545 26.47543668 89.49602903 25.22819025 83.91894531 24.02539062 C71.14595568 21.26100212 58.47359918 18.17075213 45.8125 14.9375 C44.99396545 14.72985016 44.17543091 14.52220032 43.33209229 14.30825806 C28.64654593 10.57479154 14.18155285 6.37817364 0 1 C0 0.67 0 0.34 0 0 Z " fill="#F9F9F9" transform="translate(199,533)"/>
<path d="M0 0 C1.92880952 1.57698804 3.85297142 3.15947505 5.77587891 4.74365234 C8.53553052 6.99174456 11.35643947 9.1555015 14.1875 11.3125 C18.58783022 14.67686753 22.96122399 18.072417 27.3125 21.5 C28.4856478 22.42191226 29.65882569 23.34378624 30.83203125 24.265625 C32.80365102 25.81538802 34.77335979 27.36742724 36.73974609 28.92382812 C64.43110552 50.83213017 84.46527241 58.32607346 119.625 62.25 C119.955 63.57 120.285 64.89 120.625 66.25 C119.71621094 66.42015625 118.80742187 66.5903125 117.87109375 66.765625 C108.66188974 68.54134844 99.65879222 70.72566374 90.625 73.25 C94.29189972 73.10969417 97.95845412 72.96174579 101.625 72.8125 C102.65496094 72.77318359 103.68492187 72.73386719 104.74609375 72.69335938 C109.10810678 72.51276648 113.4249696 72.33171646 117.75 71.71875 C122.40274842 71.15591753 126.94510041 71.14077289 131.625 71.1875 C132.49511719 71.19201172 133.36523438 71.19652344 134.26171875 71.20117188 C136.38284293 71.2128264 138.5039311 71.23075643 140.625 71.25 C140.625 71.58 140.625 71.91 140.625 72.25 C148.875 72.58 157.125 72.91 165.625 73.25 C165.625 73.58 165.625 73.91 165.625 74.25 C164.74054199 74.26458252 163.85608398 74.27916504 162.94482422 74.29418945 C145.32044986 74.61760392 128.01994649 75.15674449 110.625 78.25 C109.45259766 78.45254395 108.28019531 78.65508789 107.07226562 78.86376953 C78.80951215 81.75797406 78.80951215 81.75797406 54.625 92.25 C54.46813751 93.80948542 54.37423361 95.37542668 54.30859375 96.94140625 C54.26669922 97.88564453 54.22480469 98.82988281 54.18164062 99.80273438 C54.14232422 100.79595703 54.10300781 101.78917969 54.0625 102.8125 C53.99772461 104.30813477 53.99772461 104.30813477 53.93164062 105.83398438 C53.82519702 108.3058415 53.72318072 110.7778031 53.625 113.25 C40.24774264 113.76882763 27.04104776 112.20150379 13.75 110.875 C9.1903588 110.42706251 4.63033997 109.98304731 0.0703125 109.5390625 C-1.59846954 109.37485809 -1.59846954 109.37485809 -3.30096436 109.20733643 C-12.20783047 108.33884373 -21.12191548 107.58605634 -30.04586792 106.91543579 C-30.98222076 106.84198944 -31.91857361 106.76854309 -32.88330078 106.69287109 C-33.70565216 106.63102631 -34.52800354 106.56918152 -35.37527466 106.50546265 C-37.375 106.25 -37.375 106.25 -39.375 105.25 C-39.8125 102.5625 -39.8125 102.5625 -39.375 99.25 C-34.45550876 95.01032492 -30.45335947 93.37471248 -24.10546875 92.44921875 C-23.34325516 92.32311722 -22.58104156 92.19701569 -21.79573059 92.0670929 C-19.38709717 91.67300286 -16.97530524 91.30508051 -14.5625 90.9375 C-12.92485784 90.67290421 -11.28748384 90.40664309 -9.65039062 90.13867188 C2.01945246 88.25 2.01945246 88.25 4.625 88.25 C-1.55462378 80.31543774 -8.1055829 72.74061766 -14.71240234 65.16259766 C-17.30212649 62.18346418 -19.87094815 59.18659778 -22.4375 56.1875 C-22.92831055 55.61418945 -23.41912109 55.04087891 -23.92480469 54.45019531 C-24.91369602 53.29486336 -25.9024659 52.13942743 -26.89111328 50.98388672 C-29.38395527 48.0710595 -31.87966074 45.16068779 -34.375 42.25 C-34.86500488 41.67822021 -35.35500977 41.10644043 -35.85986328 40.51733398 C-38.44564373 37.50002437 -41.03254911 34.48368869 -43.62109375 31.46875 C-44.15541016 30.84613281 -44.68972656 30.22351563 -45.24023438 29.58203125 C-46.25290832 28.40204596 -47.26590404 27.22233671 -48.27929688 26.04296875 C-48.74271484 25.50285156 -49.20613281 24.96273437 -49.68359375 24.40625 C-50.14306396 23.88393799 -50.60253418 23.36162598 -51.07592773 22.82348633 C-52.375 21.25 -52.375 21.25 -54.5 17.98046875 C-58.79530959 13.90109184 -63.201695 13.76276865 -68.9375 13.0625 C-71.09682671 12.75196625 -73.25569092 12.43819815 -75.4140625 12.12109375 C-76.9594873 11.90235596 -76.9594873 11.90235596 -78.53613281 11.67919922 C-83.52807622 10.92448332 -88.64246287 10.04068972 -93.375 8.25 C-93.705 7.59 -94.035 6.93 -94.375 6.25 C-93.44427673 6.24191315 -92.51355347 6.23382629 -91.55462646 6.22549438 C-82.78492902 6.14802144 -74.01538651 6.06027923 -65.24589157 5.96247292 C-60.73736399 5.91251957 -56.22885972 5.86618943 -51.72021484 5.828125 C-47.36940881 5.79126006 -43.01879833 5.74489679 -38.66815948 5.69193649 C-37.00801269 5.67339897 -35.34782398 5.65828862 -33.68761444 5.64665604 C-31.36282816 5.62978251 -29.03848912 5.60074523 -26.71386719 5.56884766 C-26.0269429 5.56668747 -25.34001862 5.56452728 -24.63227844 5.56230164 C-21.05189936 5.49951182 -18.42668157 5.19045764 -15.375 3.25 C-15.72286708 1.27463255 -15.72286708 1.27463255 -16.375 -0.75 C-19.75683138 -2.44091569 -23.60084467 -1.93101108 -27.32275391 -1.95532227 C-28.24963516 -1.96522186 -29.17651642 -1.97512146 -30.13148499 -1.98532104 C-33.20481789 -2.0169882 -36.27816628 -2.04171408 -39.3515625 -2.06640625 C-41.47863168 -2.08697127 -43.60569674 -2.10796762 -45.73275757 -2.12937927 C-51.33871116 -2.18464658 -56.94470192 -2.2340353 -62.55072021 -2.28222656 C-68.26822223 -2.3324076 -73.9856701 -2.38811138 -79.703125 -2.44335938 C-90.9270371 -2.55099793 -102.15099617 -2.65243022 -113.375 -2.75 C-113.045 -3.41 -112.715 -4.07 -112.375 -4.75 C-109.74902344 -5.29663086 -109.74902344 -5.29663086 -106.234375 -5.71484375 C-104.9457959 -5.87355957 -103.6572168 -6.03227539 -102.32958984 -6.19580078 C-101.64322449 -6.27606506 -100.95685913 -6.35632935 -100.24969482 -6.43902588 C-97.40583708 -6.77160308 -94.5644998 -7.12364768 -91.72286987 -7.47467041 C-90.29634278 -7.65064603 -88.86968558 -7.82557009 -87.44290161 -7.99945068 C-81.53451392 -8.72084901 -75.64063716 -9.52192672 -69.75 -10.375 C-68.4822876 -10.55530762 -68.4822876 -10.55530762 -67.18896484 -10.73925781 C-63.73849429 -11.23524137 -60.30647284 -11.76231347 -56.875 -12.37890625 C-35.08674841 -16.27355622 -17.43776014 -14.07137148 0 0 Z " fill="#FAFAF9" transform="translate(222.375,418.75)"/>
<path d="M0 0 C2.20739281 -0.00217787 4.41427787 -0.02035031 6.62158203 -0.03930664 C14.58727027 -0.06990252 22.18723617 0.33830881 29.97705078 2.18530273 C29.81591797 3.4034668 29.65478516 4.62163086 29.48876953 5.87670898 C28.81691335 11.95671012 28.79306918 18.01135076 28.78955078 24.12280273 C28.77730469 25.23848633 28.76505859 26.35416992 28.75244141 27.50366211 C28.74048051 34.30941098 29.3293345 40.57670016 30.97705078 47.18530273 C29.24937352 47.50593473 27.51976473 47.81615421 25.78955078 48.12280273 C24.82662109 48.29682617 23.86369141 48.47084961 22.87158203 48.65014648 C-13.02152103 53.58229806 -52.32401919 49.41535581 -87.02294922 39.18530273 C-88.02294922 38.18530273 -88.02294922 38.18530273 -88.13647461 35.96044922 C-88.13123779 35.00211182 -88.12600098 34.04377441 -88.12060547 33.05639648 C-88.11738281 32.02192383 -88.11416016 30.98745117 -88.11083984 29.92163086 C-88.10246094 28.83301758 -88.09408203 27.7444043 -88.08544922 26.62280273 C-88.0809375 25.53032227 -88.07642578 24.4378418 -88.07177734 23.31225586 C-88.05994748 20.60321778 -88.04346465 17.89428674 -88.02294922 15.18530273 C-67.03764393 8.32180202 -45.16861841 4.21242877 -23.28515625 1.47900391 C-21.42796488 1.23788571 -19.57616717 0.95556635 -17.7265625 0.66186523 C-11.83203326 -0.09661341 -5.93293541 -0.00065413 0 0 Z " fill="#FBFBFB" transform="translate(372.02294921875,500.814697265625)"/>
<path d="M0 0 C1.10886566 0.00323273 2.21773132 0.00646545 3.36019897 0.00979614 C19.65717546 0.10928703 35.91114375 0.91422005 51.875 4.4375 C53.05811768 4.69684326 53.05811768 4.69684326 54.26513672 4.96142578 C59.8345697 6.23460393 64.93225583 7.48975367 69.8125 10.5625 C71.3125 13.4375 71.3125 13.4375 70.8125 16.5625 C65.49956016 24.2216651 54.1316705 27.04190092 45.5 28.8125 C32.5546056 30.71277121 19.42601264 30.71492333 6.37109375 30.6953125 C4.74837734 30.69598909 3.12566102 30.69696204 1.50294495 30.69821167 C-1.86938458 30.69967155 -5.24168731 30.69758962 -8.61401367 30.69287109 C-12.8920864 30.68717025 -17.1700964 30.69046609 -21.44816685 30.69644356 C-24.79001826 30.70009188 -28.1318553 30.69889125 -31.4737072 30.69631577 C-33.04943792 30.69565849 -34.62517004 30.69643184 -36.20089912 30.69879532 C-64.43343494 30.73187671 -64.43343494 30.73187671 -69.1875 27.5625 C-49.79686235 26.43277195 -30.40312278 25.39183925 -11 24.5 C-10.07820953 24.45731995 -9.15641907 24.41463989 -8.20669556 24.3706665 C1.47248364 23.92592711 11.14939972 23.52762301 20.8359375 23.28515625 C22.00220421 23.25505714 22.00220421 23.25505714 23.19203186 23.22434998 C26.81241051 23.13257673 30.43242622 23.05220697 34.0534668 22.99194336 C35.30554932 22.96366455 36.55763184 22.93538574 37.84765625 22.90625 C38.9344165 22.88755859 40.02117676 22.86886719 41.14086914 22.84960938 C44.03736319 22.74670522 44.03736319 22.74670522 46.8125 20.5625 C47.0627157 17.47884129 47.0627157 17.47884129 46.8125 14.5625 C-5.76034022 16.54335952 -5.76034022 16.54335952 -58.3125 19 C-85.20088926 20.38178829 -112.09799988 21.48357703 -139 22.5625 C-167.14322097 23.69224613 -195.28506305 24.83255529 -223.4199791 26.15527344 C-225.40843116 26.24863516 -227.39691861 26.34124213 -229.38540649 26.43383789 C-240.65988447 26.96079866 -251.9251001 27.49110001 -263.1796875 28.3503418 C-268.63536171 28.73516167 -274.09711327 28.93406432 -279.5625 29.125 C-280.75262695 29.1674585 -281.94275391 29.20991699 -283.16894531 29.25366211 C-294.84268066 29.63829791 -306.50891583 29.66787312 -318.1875 29.5625 C-314.83051032 27.32450688 -313.34151617 27.20888552 -309.3828125 26.921875 C-308.12807129 26.82398682 -306.87333008 26.72609863 -305.58056641 26.62524414 C-304.89166321 26.57498077 -304.20276001 26.52471741 -303.49298096 26.47293091 C-299.58725461 26.18556347 -295.68436209 25.86363338 -291.78125 25.54296875 C-290.4597142 25.43492165 -290.4597142 25.43492165 -289.11148071 25.32469177 C-276.67035702 24.29165746 -264.24831911 23.05171599 -251.8251915 21.82388687 C-249.79882909 21.62364909 -247.77241877 21.4239015 -245.7460022 21.22421265 C-231.65813991 19.83469179 -217.57438317 18.42042648 -203.5055542 16.84893799 C-181.72164401 14.4165704 -159.89722881 12.38018217 -138.07226562 10.35546875 C-137.26896379 10.28091839 -136.46566196 10.20636803 -135.63801765 10.12955856 C-129.01983054 9.51548183 -129.01983054 9.51548183 -125.77477646 9.21512604 C-114.90624541 8.20821225 -104.04345589 7.15521647 -93.18379211 6.05688477 C-62.13109632 2.91767671 -31.24250101 -0.10680221 0 0 Z " fill="#F6F6F5" transform="translate(542.1875,573.4375)"/>
<path d="M0 0 C2.38726683 0.19301306 4.76435571 0.41893294 7.14453125 0.6875 C8.94951597 0.88503595 10.76059405 1.03693325 12.57421875 1.125 C16.64139245 1.53363284 19.15469203 2.20182251 22.171875 5.05078125 C24.09113171 7.4148292 25.90891718 9.82985617 27.70166016 12.29052734 C30.13757438 15.49779914 32.83808679 18.48025332 35.5 21.5 C40.00049458 26.65579348 44.39006266 31.88170439 48.69921875 37.19921875 C51.3805973 40.46330775 54.12094073 43.67222845 56.875 46.875 C57.37555908 47.45805908 57.87611816 48.04111816 58.3918457 48.6418457 C60.46059359 51.05035266 62.53062586 53.4576691 64.60839844 55.85839844 C66.1599035 57.65194207 67.70536573 59.450539 69.25 61.25 C69.72808105 61.79897949 70.20616211 62.34795898 70.69873047 62.91357422 C74 66.77301168 74 66.77301168 74 69 C69.93986239 69.70196759 65.87662412 70.38402639 61.8125 71.0625 C60.66201172 71.26166016 59.51152344 71.46082031 58.32617188 71.66601562 C57.21435547 71.84970703 56.10253906 72.03339844 54.95703125 72.22265625 C53.93585205 72.39547119 52.91467285 72.56828613 51.86254883 72.74633789 C48.84714351 73.01354524 46.84732881 73.0415393 44 72 C42.20166016 69.88061523 42.20166016 69.88061523 40.5390625 67.05859375 C39.91040283 66.0121167 39.28174316 64.96563965 38.6340332 63.88745117 C37.63956177 62.17972534 37.63956177 62.17972534 36.625 60.4375 C35.92001155 59.25454146 35.21319741 58.0726692 34.50463867 56.8918457 C33.04509879 54.45792077 31.59217254 52.02022738 30.14306641 49.58007812 C26.95312584 44.22846807 23.63079784 38.96011411 20.3125 33.6875 C19.08799229 31.73211476 17.86402981 29.77638797 16.640625 27.8203125 C16.04314453 26.86543945 15.44566406 25.91056641 14.83007812 24.92675781 C11.73441689 19.97601249 8.64483319 15.02155408 5.5625 10.0625 C4.71909058 8.71128052 4.71909058 8.71128052 3.85864258 7.33276367 C3.34970459 6.51267822 2.8407666 5.69259277 2.31640625 4.84765625 C1.64266968 3.7649646 1.64266968 3.7649646 0.95532227 2.66040039 C0 1 0 1 0 0 Z " fill="#FAFAF9" transform="translate(143,435)"/>
<path d="M0 0 C1.16208984 0.00322266 2.32417969 0.00644531 3.52148438 0.00976562 C4.67970703 -0.00634766 5.83792969 -0.02246094 7.03125 -0.0390625 C8.14048828 -0.03970703 9.24972656 -0.04035156 10.39257812 -0.04101562 C11.92096313 -0.04548706 11.92096313 -0.04548706 13.48022461 -0.05004883 C16.08398438 0.32226562 16.08398438 0.32226562 17.91699219 1.36621094 C19.73726612 4.41726423 19.49126779 7.53309971 19.44726562 10.98242188 C19.44776413 11.72809921 19.44826263 12.47377655 19.44877625 13.24205017 C19.44643798 14.81642323 19.43672393 16.39080017 19.42016602 17.96508789 C19.39653682 20.3794074 19.39961094 22.79262522 19.40625 25.20703125 C19.40067434 26.73633473 19.39356516 28.26563355 19.38476562 29.79492188 C19.38613274 30.88088402 19.38613274 30.88088402 19.38752747 31.98878479 C19.31503 37.09122 19.31503 37.09122 17.08398438 39.32226562 C14.50195312 39.58105469 14.50195312 39.58105469 11.27148438 39.58789062 C10.11390625 39.59046875 8.95632813 39.59304688 7.76367188 39.59570312 C6.549375 39.58796875 5.33507812 39.58023438 4.08398438 39.57226562 C2.8696875 39.58 1.65539062 39.58773437 0.40429688 39.59570312 C-1.33207031 39.59183594 -1.33207031 39.59183594 -3.10351562 39.58789062 C-4.70259766 39.58450684 -4.70259766 39.58450684 -6.33398438 39.58105469 C-8.91601562 39.32226562 -8.91601562 39.32226562 -10.91601562 37.32226562 C-11.11566936 34.69286367 -11.19585672 32.17106399 -11.18164062 29.54101562 C-11.18355408 28.77172729 -11.18546753 28.00243896 -11.18743896 27.20983887 C-11.18880071 25.58243483 -11.18510501 23.95501992 -11.17675781 22.32763672 C-11.16605783 19.83210932 -11.17665314 17.3373018 -11.18945312 14.84179688 C-11.18813153 13.2623682 -11.18556913 11.68293997 -11.18164062 10.10351562 C-11.18568909 9.35453003 -11.18973755 8.60554443 -11.19390869 7.8338623 C-11.11642096 -0.69771064 -7.39967005 0.047351 0 0 Z " fill="#F9F9F7" transform="translate(562.916015625,504.677734375)"/>
<path d="M0 0 C5.84289162 -0.48083647 8.37925093 0.41630514 12.875 4.125 C13.41745361 4.56440918 13.95990723 5.00381836 14.51879883 5.45654297 C16.35979904 6.95482161 18.17922759 8.47722257 20 10 C21.42198548 11.16811876 22.84520858 12.3347322 24.26953125 13.5 C27.21148707 15.91085091 30.1457812 18.3305616 33.07421875 20.7578125 C36.02640232 23.20181619 38.9982071 25.61697531 42 28 C46.63562537 31.69088652 51.22854771 35.43276647 55.8125 39.1875 C56.90788086 40.07985352 56.90788086 40.07985352 58.02539062 40.99023438 C61.88861374 44.16270608 65.54016912 47.39062829 69 51 C39.26908334 51.57605651 39.26908334 51.57605651 32.48828125 47.484375 C28.99010032 43.99168572 26.33061975 40.0830157 23.5625 36 C22.32983676 34.20674957 21.09675085 32.41378963 19.86328125 30.62109375 C19.23115723 29.69796387 18.5990332 28.77483398 17.94775391 27.82373047 C16.00187746 25.00272182 14.02818171 22.20359591 12.04296875 19.41015625 C11.08958618 18.0653418 11.08958618 18.0653418 10.11694336 16.69335938 C8.89566426 14.97235721 7.67133672 13.25351325 6.44360352 11.53710938 C5.88987061 10.75271484 5.3361377 9.96832031 4.765625 9.16015625 C4.27868164 8.47574463 3.79173828 7.79133301 3.29003906 7.08618164 C1.87941561 4.80499743 0.92759389 2.51200531 0 0 Z " fill="#F9F9F7" transform="translate(136,551)"/>
<path d="M0 0 C4.08168629 1.57701516 6.25602847 4.01017416 8.265625 7.9140625 C9.97433617 12.76752934 10.0141778 17.59082664 8.01171875 22.34765625 C5.82041645 26.08576017 4.11499534 28.37917966 0 30 C-4.03199591 30.4398541 -6.22875235 30.45573725 -9.75 28.375 C-14.88424382 22.95552041 -15.53968106 18.11789669 -15.359375 10.8515625 C-14.84692817 6.78540831 -13.76019605 4.99678428 -11 2 C-7.27856994 -0.48095337 -4.3099924 -0.52395986 0 0 Z " fill="#161515" transform="translate(702,509)"/>
<path d="M0 0 C4.33271449 2.44892558 6.35869755 5.33524566 8 10 C8.92451282 16.82110072 8.15819163 21.49320567 4 27 C1.05683606 29.46589411 -0.6757442 29.95946802 -4.5 30.4375 C-8.64904457 29.91886943 -10.10906824 28.97123542 -13 26 C-17.06775568 20.34650905 -16.7778221 14.72985208 -16 8 C-13.16227987 0.4883879 -7.32935095 -1.03230295 0 0 Z " fill="#161515" transform="translate(659,509)"/>
<path d="M0 0 C3.38459562 0.53033276 4.95771375 1.82061573 7.21875 4.34765625 C10.6836734 9.36582117 11.20156122 14.4325887 10.21875 20.34765625 C8.62509214 24.1547278 6.83714638 27.35917463 3.26171875 29.54296875 C0.09211729 30.79141598 -2.41280354 30.70222956 -5.78125 30.34765625 C-9.63762984 28.15653134 -11.70942621 25.58593535 -13.2734375 21.40625 C-14.65132428 15.82050899 -14.66536085 11.02441821 -11.96875 5.91015625 C-11.246875 5.06453125 -10.525 4.21890625 -9.78125 3.34765625 C-9.10642578 2.53941406 -9.10642578 2.53941406 -8.41796875 1.71484375 C-5.7691015 -0.49781385 -3.32539324 -0.12416241 0 0 Z " fill="#0F0F0F" transform="translate(744.78125,508.65234375)"/>
<path d="M0 0 C4.10085096 1.62126666 6.24373853 4.05291144 8.26953125 7.98046875 C10.19540171 13.30493415 9.60511725 18.27509633 7.3125 23.375 C5.40757939 26.73033385 3.69453358 28.59255864 0 30 C-3.89079347 30.57947988 -5.6626608 30.17197685 -9.1875 28.375 C-13.08856693 25.0807657 -14.6984504 22.49802203 -15.31640625 17.37890625 C-15.56757053 11.40767814 -15.1511561 7.61239567 -11 3 C-7.61562582 -0.50107673 -4.74903168 -0.49989807 0 0 Z " fill="#111110" transform="translate(525,509)"/>
<path d="M0 0 C3.62919669 2.19507864 6.28526455 4.78805729 8.4375 8.4375 C9.98334172 15.47966783 8.70858586 20.92809962 5 27 C2.10979839 29.57774739 0.39203845 29.94297623 -3.4375 30.5 C-8.22112622 29.82861386 -9.64370524 28.43434812 -13 25 C-16.08767385 20.13138117 -15.60960052 14.5533121 -15 9 C-11.63597301 2.15180219 -7.79906174 -1.18968738 0 0 Z " fill="#141514" transform="translate(570,509)"/>
<path d="M0 0 C3.91288936 0.84409679 6.52891077 3.5432161 9.13671875 6.4609375 C11.34400767 10.87551535 10.56344418 16.65589228 10.13671875 21.4609375 C8.71209884 25.40263198 5.85463819 28.54886465 2.13671875 30.4609375 C-1.17543605 30.9516271 -3.59994257 31.18613419 -6.578125 29.4765625 C-9.52349283 27.14331268 -11.5249952 24.94414776 -12.86328125 21.4609375 C-14.18050509 9.60592297 -14.18050509 9.60592297 -11.05078125 4.7734375 C-7.57829176 1.10252004 -5.09598004 -0.09419556 0 0 Z " fill="#131312" transform="translate(611.86328125,508.5390625)"/>
<path d="M0 0 C5.44450208 0.70363268 8.50055467 3.64190119 12.625 7.1015625 C14.15447022 8.34433813 15.6844148 9.58653021 17.21484375 10.828125 C17.95331543 11.43688477 18.69178711 12.04564453 19.45263672 12.67285156 C22.31893821 14.98618294 25.27380522 17.16487193 28.25610352 19.32568359 C28.72846436 19.70547363 29.2008252 20.08526367 29.6875 20.4765625 C29.6875 20.8065625 29.6875 21.1365625 29.6875 21.4765625 C10.5572741 24.9989533 10.5572741 24.9989533 3.8125 21.50537109 C-0.0756953 18.65785306 -3.13317411 15.07142338 -6.3125 11.4765625 C-7.87289474 10.09602635 -9.45326091 8.73733925 -11.0625 7.4140625 C-12.984375 5.81640625 -12.984375 5.81640625 -14.3125 4.4765625 C-14.3125 3.8165625 -14.3125 3.1565625 -14.3125 2.4765625 C-12.62662229 2.13511891 -10.93868407 1.80384447 -9.25 1.4765625 C-8.31027344 1.2909375 -7.37054687 1.1053125 -6.40234375 0.9140625 C-4.26787906 0.61183741 -2.13378555 0.3069833 0 0 Z " fill="#F6F6F5" transform="translate(884.3125,501.5234375)"/>
<path d="M0 0 C4.86777008 0.52249887 6.75038788 2.59861095 10.06640625 6.0078125 C11.19445191 7.11155731 12.3233508 8.21443081 13.453125 9.31640625 C13.98728027 9.84733887 14.52143555 10.37827148 15.07177734 10.92529297 C16.93004224 12.73741996 18.88111599 14.41430306 20.87890625 16.0703125 C21.76578125 16.8334375 22.65265625 17.5965625 23.56640625 18.3828125 C23.56640625 18.7128125 23.56640625 19.0428125 23.56640625 19.3828125 C11.10697685 19.74453787 -2.26503511 20.01372925 -11.93359375 11.0703125 C-13.83228381 7.6684928 -13.73439344 5.21800851 -13.43359375 1.3828125 C-11.91327571 1.21150906 -10.39229985 1.04604177 -8.87109375 0.8828125 C-7.60072266 0.74359375 -7.60072266 0.74359375 -6.3046875 0.6015625 C-4.19968124 0.44118107 -2.09810762 0.23391871 0 0 Z " fill="#F6F6F3" transform="translate(856.43359375,504.6171875)"/>
<path d="M0 0 C3 0.625 3 0.625 5.375 2.625 C7.4161796 6.39333157 7.65646026 9.47552283 7 13.625 C5.875 17.0625 5.875 17.0625 4 19.625 C1.0625 20.75 1.0625 20.75 -2 20.625 C-4.34939689 18.78358081 -5.6699947 17.2850106 -7 14.625 C-7.54276964 10.09598776 -7.53598336 6.63512248 -5.375 2.5625 C-3 0.625 -3 0.625 0 0 Z " fill="#F5F5F3" transform="translate(743,513.375)"/>
<path d="M0 0 C3 0.625 3 0.625 5.375 2.5625 C7.57364571 6.70610152 7.67465883 10.027325 7 14.625 C5.875 17.625 5.875 17.625 4 19.625 C1.0625 20.6875 1.0625 20.6875 -2 20.625 C-4.88642473 18.44067858 -5.85101198 17.07196406 -7 13.625 C-7.56155508 6.66171706 -7.56155508 6.66171706 -5.375 2.625 C-3 0.625 -3 0.625 0 0 Z " fill="#F4F4F2" transform="translate(522,513.375)"/>
<path d="M0 0 C3 0.6875 3 0.6875 5.375 3.25 C7.78061377 8.33879836 7.61059605 11.74795961 5.9375 17.0625 C4 19.6875 4 19.6875 0.3125 20.5625 C-0.780625 20.60375 -1.87375 20.645 -3 20.6875 C-6.51039293 16.40920862 -7.66502507 13.38149465 -7.3828125 7.8125 C-6.54355335 3.15375536 -4.53880628 1.04014311 0 0 Z " fill="#F6F5F3" transform="translate(567,513.3125)"/>
<path d="M0 0 C19.58268978 1.17724176 19.58268978 1.17724176 25.9375 8.25 C27.34000173 10.1315864 28.70013558 12.04609853 30 14 C30.56074219 14.69351562 31.12148437 15.38703125 31.69921875 16.1015625 C34.46817952 19.54569453 35.23492661 21.6538577 35 26 C36.39957197 28.28484306 36.39957197 28.28484306 38 30 C37.01 30 36.02 30 35 30 C33.01953125 27.9453125 33.01953125 27.9453125 30.8125 25.125 C30.00039062 24.12597656 29.18828125 23.12695312 28.3515625 22.09765625 C26 19 26 19 24.3359375 16.18359375 C21.2569508 11.28785898 18.65217394 8.95656736 13.05078125 7.48828125 C8.07083413 6.40429845 3.05786647 5.61705971 -2 5 C-1.34 3.35 -0.68 1.7 0 0 Z " fill="#131211" transform="translate(145,430)"/>
<path d="M0 0 C3.4375 1.125 3.4375 1.125 5.375 3.25 C6.69196444 6.81355084 6.8421929 9.34786628 6.4375 13.125 C5.03289303 15.99805972 3.69239001 17.87010999 1.4375 20.125 C-1.5 20.0625 -1.5 20.0625 -4.5625 19.125 C-7.30798641 16.19648116 -7.79908761 13.51362697 -8 9.625 C-7.87077511 6.40514643 -7.486576 4.973152 -6 2 C-3.5625 0.125 -3.5625 0.125 0 0 Z " fill="#F7F7F4" transform="translate(699.5625,513.875)"/>
<path d="M0 0 C3.4375 1.125 3.4375 1.125 5.375 3.25 C6.70912229 6.85997797 6.90764636 9.29666532 6.4375 13.125 C4.94004139 15.73347629 3.56721098 17.99528902 1.4375 20.125 C-0.875 20.5625 -0.875 20.5625 -3.5625 20.125 C-6.69484773 16.82333618 -7.84606 14.02564204 -8.0625 9.5625 C-7.89606599 6.3895162 -7.46499063 4.92998127 -6 2 C-3.5625 0.125 -3.5625 0.125 0 0 Z " fill="#F6F6F2" transform="translate(655.5625,513.875)"/>
<path d="M0 0 C2.97370871 4.46056306 2.61841945 8.77015646 2 14 C0.3125 17.1875 0.3125 17.1875 -2 19 C-4.5 19.625 -4.5 19.625 -7 19 C-9.8690335 16.75129807 -10.85882245 14.96400022 -11.38671875 11.359375 C-11.55216486 7.09200646 -11.57140272 4.00566879 -9.4375 0.25 C-5.92821869 -1.54963144 -3.73588519 -1.03774589 0 0 Z " fill="#F9F8F7" transform="translate(615,515)"/>
<path d="M0 0 C1.23685547 -0.020625 2.47371094 -0.04125 3.74804688 -0.0625 C5.53758789 -0.07023437 5.53758789 -0.07023437 7.36328125 -0.078125 C9.0016394 -0.09214355 9.0016394 -0.09214355 10.6730957 -0.10644531 C14.10035628 0.29881916 15.96325143 1.15456582 18.6875 3.25 C19.1825 4.735 19.1825 4.735 19.6875 6.25 C19.23624756 7.11093262 19.23624756 7.11093262 18.77587891 7.98925781 C17.24988498 11.15899846 17.35966406 13.91532815 17.2734375 17.421875 C17.25407135 18.1042926 17.2347052 18.78671021 17.2147522 19.48980713 C17.15518902 21.65974608 17.10866554 23.82973877 17.0625 26 C17.02429869 27.47528297 16.9852457 28.95054415 16.9453125 30.42578125 C16.84950765 34.03365418 16.76539084 37.64169083 16.6875 41.25 C16.3575 41.25 16.0275 41.25 15.6875 41.25 C15.67291748 40.26604248 15.65833496 39.28208496 15.64331055 38.26831055 C15.58533002 34.61706226 15.50809815 30.96643089 15.42504883 27.31567383 C15.39179812 25.73569757 15.36376654 24.15560248 15.34106445 22.57543945 C15.30751984 20.30368421 15.25520773 18.03301797 15.19921875 15.76171875 C15.19282883 15.05536789 15.1864389 14.34901703 15.17985535 13.6212616 C15.0961582 10.82859603 14.98042878 8.72412308 13.49316406 6.31689453 C11.03348608 4.86356939 9.13544675 4.78299008 6.28515625 4.66796875 C4.70250977 4.60125977 4.70250977 4.60125977 3.08789062 4.53320312 C1.98638672 4.50162109 0.88488281 4.47003906 -0.25 4.4375 C-1.89645508 4.36112305 -1.89645508 4.36112305 -3.57617188 4.28320312 C-10.23412726 3.90038659 -10.23412726 3.90038659 -16.3125 6.25 C-15.9375 3.8125 -15.9375 3.8125 -15.3125 1.25 C-10.8830385 -0.96473075 -4.8639539 0.02008861 0 0 Z " fill="#151414" transform="translate(566.3125,499.75)"/>
<path d="M0 0 C1.03688965 0.01047363 2.0737793 0.02094727 3.14208984 0.03173828 C4.26357422 0.03818359 5.38505859 0.04462891 6.54052734 0.05126953 C7.71615234 0.06802734 8.89177734 0.08478516 10.10302734 0.10205078 C11.87806641 0.11558594 11.87806641 0.11558594 13.68896484 0.12939453 C16.61885257 0.15302266 19.54834075 0.18596564 22.47802734 0.22705078 C22.47802734 0.55705078 22.47802734 0.88705078 22.47802734 1.22705078 C20.49802734 1.55705078 18.51802734 1.88705078 16.47802734 2.22705078 C17.13802734 3.54705078 17.79802734 4.86705078 18.47802734 6.22705078 C15.47802734 6.22705078 15.47802734 6.22705078 13.47802734 5.22705078 C9.39892928 4.84223021 7.18712862 4.78583221 3.66552734 6.97705078 C-0.63324289 11.39864302 -0.92416985 15.24902276 -1.52197266 21.22705078 C-1.85197266 21.22705078 -2.18197266 21.22705078 -2.52197266 21.22705078 C-2.85197266 18.91705078 -3.18197266 16.60705078 -3.52197266 14.22705078 C-3.85197266 14.22705078 -4.18197266 14.22705078 -4.52197266 14.22705078 C-4.57586353 12.26901571 -4.61471483 10.31056169 -4.64697266 8.35205078 C-4.67017578 7.26150391 -4.69337891 6.17095703 -4.71728516 5.04736328 C-4.46121996 1.34978178 -3.73837996 0.33656276 0 0 Z " fill="#F4F2EE" transform="translate(556.52197265625,504.77294921875)"/>
<path d="M0 0 C0.66 0 1.32 0 2 0 C2 11.88 2 23.76 2 36 C1.01 36 0.02 36 -1 36 C-3.14053349 31.71893302 -2.18585451 26.00668045 -2.18530273 21.25146484 C-2.1874844 19.140093 -2.20563103 17.02924779 -2.22460938 14.91796875 C-2.22754442 13.57291845 -2.22952847 12.22786567 -2.23046875 10.8828125 C-2.23457764 9.65965332 -2.23868652 8.43649414 -2.24291992 7.17626953 C-2.01359087 4.17770578 -1.5785573 2.51427383 0 0 Z " fill="#020202" transform="translate(585,506)"/>
<path d="M0 0 C3.88689552 3.68756754 5.76948217 5.69482174 6.3125 11.125 C5.92707035 15.90432772 4.65489268 19.97669041 2 24 C0.02734375 25.30859375 0.02734375 25.30859375 -2 26 C-4.6875 25.25 -4.6875 25.25 -7 24 C-7.33 23.34 -7.66 22.68 -8 22 C-6.02 21.67 -4.04 21.34 -2 21 C-0.41744803 16.67435795 0.45144652 12.571279 1 8 C1.66 8 2.32 8 3 8 C2.505 7.05125 2.01 6.1025 1.5 5.125 C0 2 0 2 0 0 Z " fill="#181817" transform="translate(573,512)"/>
<path d="M0 0 C3.90406561 0.98155147 6.58035764 3.43365115 9.06640625 6.51953125 C10.00390625 9.39453125 10.00390625 9.39453125 10.06640625 11.51953125 C9.07640625 11.51953125 8.08640625 11.51953125 7.06640625 11.51953125 C6.73640625 13.82953125 6.40640625 16.13953125 6.06640625 18.51953125 C5.73640625 18.51953125 5.40640625 18.51953125 5.06640625 18.51953125 C5.00582031 17.90464844 4.94523438 17.28976562 4.8828125 16.65625 C4.79902344 15.84800781 4.71523438 15.03976562 4.62890625 14.20703125 C4.54769531 13.40652344 4.46648438 12.60601563 4.3828125 11.78125 C4.11374932 9.35865946 4.11374932 9.35865946 3.06640625 6.51953125 C1.97328125 6.51953125 0.88015625 6.51953125 -0.24609375 6.51953125 C-7.30859375 6.51953125 -7.30859375 6.51953125 -10.93359375 4.51953125 C-7.5484297 1.1343672 -4.88591154 -0.25032184 0 0 Z " fill="#1D1D1B" transform="translate(611.93359375,508.48046875)"/>
<path d="M0 0 C0 0.33 0 0.66 0 1 C5.61 1.33 11.22 1.66 17 2 C17 2.33 17 2.66 17 3 C-0.34225691 3.72710622 -17.64225338 4.15661487 -35 4 C-31.66781779 1.7785452 -30.15361386 1.64499172 -26.23046875 1.3671875 C-25.09416016 1.28339844 -23.95785156 1.19960938 -22.78710938 1.11328125 C-21.59923828 1.03464844 -20.41136719 0.95601562 -19.1875 0.875 C-18.01123047 0.78863281 -16.83496094 0.70226562 -15.62304688 0.61328125 C-10.4015438 0.24137091 -5.23676286 -0.04596654 0 0 Z " fill="#C2C1C0" transform="translate(259,599)"/>
<path d="M0 0 C3.51610654 2.34407102 4.35794962 4.16854912 6 8 C6 8.99 6 9.98 6 11 C5.01 11 4.02 11 3 11 C2.566875 10.175 2.13375 9.35 1.6875 8.5 C1.130625 7.675 0.57375 6.85 0 6 C-3 5.58333333 -3 5.58333333 -6 6 C-6.99 6 -7.98 6 -9 6 C-10.69719127 6.94726954 -12.36935236 7.94228261 -14 9 C-11.75596136 1.65587354 -7.56696564 -0.84077396 0 0 Z " fill="#0C0B0A" transform="translate(570,509)"/>
<path d="M0 0 C1.03688965 0.01047363 2.0737793 0.02094727 3.14208984 0.03173828 C4.26357422 0.03818359 5.38505859 0.04462891 6.54052734 0.05126953 C7.71615234 0.06802734 8.89177734 0.08478516 10.10302734 0.10205078 C11.87806641 0.11558594 11.87806641 0.11558594 13.68896484 0.12939453 C16.61885257 0.15302266 19.54834075 0.18596564 22.47802734 0.22705078 C22.47802734 0.55705078 22.47802734 0.88705078 22.47802734 1.22705078 C20.49802734 1.55705078 18.51802734 1.88705078 16.47802734 2.22705078 C17.13802734 3.54705078 17.79802734 4.86705078 18.47802734 6.22705078 C15.47802734 6.22705078 15.47802734 6.22705078 13.47802734 5.22705078 C11.93778738 5.15754537 10.39467747 5.14252721 8.85302734 5.16455078 C8.03576172 5.17357422 7.21849609 5.18259766 6.37646484 5.19189453 C5.74998047 5.20349609 5.12349609 5.21509766 4.47802734 5.22705078 C4.14802734 4.23705078 3.81802734 3.24705078 3.47802734 2.22705078 C2.71490234 2.22705078 1.95177734 2.22705078 1.16552734 2.22705078 C-0.73030599 2.22705078 -2.62613932 2.22705078 -4.52197266 2.22705078 C-2.52197266 0.22705078 -2.52197266 0.22705078 0 0 Z " fill="#DCD8D6" transform="translate(556.52197265625,504.77294921875)"/>
<path d="M0 0 C-1.98 0.99 -1.98 0.99 -4 2 C-1.36 2.33 1.28 2.66 4 3 C4 3.33 4 3.66 4 4 C-3.41065482 4.10276717 -10.78886018 4.05368242 -18.1875 3.625 C-20.03408203 3.52058594 -20.03408203 3.52058594 -21.91796875 3.4140625 C-25 3 -25 3 -28 1 C-18.62895894 0.11504503 -9.40228594 -0.1170409 0 0 Z " fill="#D3D3D3" transform="translate(501,600)"/>
<path d="M0 0 C2 2 2 2 2.24291992 3.8918457 C2.23881104 4.64554443 2.23470215 5.39924316 2.23046875 6.17578125 C2.22853516 7.00400391 2.22660156 7.83222656 2.22460938 8.68554688 C2.21236328 9.55244141 2.20011719 10.41933594 2.1875 11.3125 C2.18685547 12.16779297 2.18621094 13.02308594 2.18554688 13.90429688 C2.15660213 18.05626024 2.04304979 21.95296681 1 26 C0.34 25.67 -0.32 25.34 -1 25 C-1.0289337 21.20834926 -1.04677601 17.41672673 -1.0625 13.625 C-1.07087891 12.54476562 -1.07925781 11.46453125 -1.08789062 10.3515625 C-1.09111328 9.3203125 -1.09433594 8.2890625 -1.09765625 7.2265625 C-1.10289307 6.27346191 -1.10812988 5.32036133 -1.11352539 4.33837891 C-1 2 -1 2 0 0 Z " fill="#D6D5D6" transform="translate(409,512)"/>
<path d="M0 0 C1.9375 0.8125 1.9375 0.8125 4 2 C4.33 2.99 4.66 3.98 5 5 C4.69916504 5.57395508 4.39833008 6.14791016 4.08837891 6.73925781 C2.56238498 9.90899846 2.67216406 12.66532815 2.5859375 16.171875 C2.56657135 16.8542926 2.5472052 17.53671021 2.5272522 18.23980713 C2.46768902 20.40974608 2.42116554 22.57973877 2.375 24.75 C2.33679869 26.22528297 2.2977457 27.70054415 2.2578125 29.17578125 C2.16200765 32.78365418 2.07789084 36.39169083 2 40 C1.67 40 1.34 40 1 40 C0.98541748 39.0212793 0.97083496 38.04255859 0.95581055 37.03417969 C0.89774894 33.39595374 0.8205174 29.75834164 0.73754883 26.12060547 C0.70433628 24.54746478 0.67629283 22.97420599 0.65356445 21.40087891 C0.61994972 19.13653328 0.56763376 16.87326635 0.51171875 14.609375 C0.50213387 13.55759064 0.50213387 13.55759064 0.49235535 12.48455811 C0.36969605 8.39233693 -0.12620034 5.98420175 -3 3 C-2.01 3 -1.02 3 0 3 C0 2.01 0 1.02 0 0 Z " fill="#282726" transform="translate(581,501)"/>
<path d="M0 0 C1.32 0.33 2.64 0.66 4 1 C4 3.97 4 6.94 4 10 C3.34 10 2.68 10 2 10 C1.7525 10.598125 1.505 11.19625 1.25 11.8125 C-0.16370012 14.28647521 -1.65055383 15.43370255 -4 17 C-3.58578731 14.51472384 -3.22429589 12.4065363 -2 10.1875 C-0.48730941 6.87848933 -0.36116775 3.61167752 0 0 Z " fill="#0B0B0B" transform="translate(618,519)"/>
<path d="M0 0 C3.88862987 1.26117725 5.89375599 2.45264167 8 6 C8 6.66 8 7.32 8 8 C5.6875 8.6875 5.6875 8.6875 3 9 C1.4375 7.6875 1.4375 7.6875 0 6 C-2.09989652 4.82425289 -2.09989652 4.82425289 -4 4 C-2.68 3.34 -1.36 2.68 0 2 C0 1.34 0 0.68 0 0 Z " fill="#1D1C1B" transform="translate(657,509)"/>
<path d="M0 0 C4.46839215 -0.21278058 7.82262526 0.40861915 12 2 C12.33 3.65 12.66 5.3 13 7 C12.01 7 11.02 7 10 7 C9.67 9.31 9.34 11.62 9 14 C8.67 14 8.34 14 8 14 C7.93941406 13.38511719 7.87882813 12.77023437 7.81640625 12.13671875 C7.73261719 11.32847656 7.64882813 10.52023437 7.5625 9.6875 C7.48128906 8.88699219 7.40007813 8.08648438 7.31640625 7.26171875 C7.04734307 4.83912821 7.04734307 4.83912821 6 2 C3.03 1.505 3.03 1.505 0 1 C0 0.67 0 0.34 0 0 Z " fill="#2F2F2F" transform="translate(609,513)"/>
<path d="M0 0 C0.66 0.33 1.32 0.66 2 1 C1.83628906 1.54140625 1.67257812 2.0828125 1.50390625 2.640625 C0.91409413 5.40222593 0.90390692 7.92818139 0.9375 10.75 C0.95103516 12.22726562 0.95103516 12.22726562 0.96484375 13.734375 C0.97644531 14.48203125 0.98804688 15.2296875 1 16 C0.34 16 -0.32 16 -1 16 C-1.33 12.37 -1.66 8.74 -2 5 C-3.66342837 6.66342837 -3.36048097 8.7825709 -3.5625 11.0625 C-3.64628906 11.98160156 -3.73007812 12.90070312 -3.81640625 13.84765625 C-3.87699219 14.55792969 -3.93757812 15.26820313 -4 16 C-4.33 16 -4.66 16 -5 16 C-5.28580155 11.96067147 -5.45551292 8.02994957 -5 4 C-2.5 1.25 -2.5 1.25 0 0 Z " fill="#232120" transform="translate(560,514)"/>
<path d="M0 0 C0.33 0 0.66 0 1 0 C1 3.96 1 7.92 1 12 C1.66 12.33 2.32 12.66 3 13 C2.34 13.66 1.68 14.32 1 15 C0.67 14.01 0.34 13.02 0 12 C-0.66 12 -1.32 12 -2 12 C-2.05395478 10.37536158 -2.09277195 8.75021459 -2.125 7.125 C-2.14820313 6.22007812 -2.17140625 5.31515625 -2.1953125 4.3828125 C-2 2 -2 2 0 0 Z " fill="#030202" transform="translate(558,518)"/>
<path d="M0 0 C3.9375 0.5 3.9375 0.5 5.9375 2.5 C6.2675 3.16 6.5975 3.82 6.9375 4.5 C3.9375 4.5 3.9375 4.5 0.9375 2.5 C0.9375 3.16 0.9375 3.82 0.9375 4.5 C-2.0325 4.5 -5.0025 4.5 -8.0625 4.5 C-5.66426702 1.30235603 -3.92485591 0.17347429 0 0 Z " fill="#1B1A18" transform="translate(161.0625,432.5)"/>
<path d="M0 0 C4.95 1.98 4.95 1.98 10 4 C6.38863788 5.80568106 5.455469 6.24851563 1.75 6.125 C-0.10625 6.063125 -0.10625 6.063125 -2 6 C-1.34 4.02 -0.68 2.04 0 0 Z " fill="#EDE8E7" transform="translate(866,492)"/>
<path d="M0 0 C0.33 0.66 0.66 1.32 1 2 C1.99 1.67 2.98 1.34 4 1 C4.33 1.99 4.66 2.98 5 4 C3.0625 7.1875 3.0625 7.1875 1 10 C0.67 9.01 0.34 8.02 0 7 C-2.01508358 6.26676204 -2.01508358 6.26676204 -4 6 C-3.525625 5.566875 -3.05125 5.13375 -2.5625 4.6875 C-0.76313043 2.97690387 -0.76313043 2.97690387 0 0 Z " fill="#1B1B1C" transform="translate(749,527)"/>
<path d="M0 0 C3.25 -0.3125 3.25 -0.3125 7 0 C9.4375 2.5 9.4375 2.5 11 5 C8 5 8 5 6 4 C3.6670134 3.95977609 1.33293334 3.95679753 -1 4 C-0.67 2.68 -0.34 1.36 0 0 Z " fill="#080807" transform="translate(609,510)"/>
<path d="M0 0 C-1 2 -1 2 -2.765625 2.62109375 C-5.14150323 3.02399618 -7.34179517 3.09791478 -9.75 3.0625 C-10.54921875 3.05347656 -11.3484375 3.04445313 -12.171875 3.03515625 C-12.77515625 3.02355469 -13.3784375 3.01195312 -14 3 C-11.87033995 0.87033995 -10.95931796 0.52375338 -8.125 -0.1875 C-7.44695312 -0.36667969 -6.76890625 -0.54585938 -6.0703125 -0.73046875 C-3.77181444 -1.02970718 -2.19449036 -0.69377386 0 0 Z " fill="#2E2D2C" transform="translate(325,490)"/>
<path d="M0 0 C0.66 0 1.32 0 2 0 C2.33 0.66 2.66 1.32 3 2 C3.99 1.34 4.98 0.68 6 0 C6.66 1.32 7.32 2.64 8 4 C7.34 4 6.68 4 6 4 C5.67 4.99 5.34 5.98 5 7 C3.29115995 5.37660195 1.62553283 3.70680947 0 2 C0 1.34 0 0.68 0 0 Z " fill="#1C1C1B" transform="translate(556,530)"/>
<path d="M0 0 C0.99 1.32 1.98 2.64 3 4 C2.34 4.66 1.68 5.32 1 6 C0.01 6 -0.98 6 -2 6 C-2.99 6.66 -3.98 7.32 -5 8 C-3.8141763 4.62496331 -2.72426311 2.35277269 0 0 Z " fill="#171613" transform="translate(561,510)"/>
<path d="M0 0 C0.66 0.33 1.32 0.66 2 1 C1.04956626 2.33897583 0.08940853 3.67105427 -0.875 5 C-1.40867187 5.7425 -1.94234375 6.485 -2.4921875 7.25 C-3.23855469 8.11625 -3.23855469 8.11625 -4 9 C-4.66 9 -5.32 9 -6 9 C-4.68775452 5.06326356 -3.08089673 2.77280706 0 0 Z " fill="#1F1F1C" transform="translate(738,509)"/>
<path d="M0 0 C2.875 -0.1875 2.875 -0.1875 6 0 C6.66 0.99 7.32 1.98 8 3 C6.35 2.67 4.7 2.34 3 2 C2.67 2.99 2.34 3.98 2 5 C1.34 3.35 0.68 1.7 0 0 Z " fill="#484849" transform="translate(665,461)"/>
<path d="M0 0 C1.98 0 3.96 0 6 0 C5.34 1.98 4.68 3.96 4 6 C0 1.125 0 1.125 0 0 Z " fill="#D8D4D3" transform="translate(143,435)"/>
<path d="M0 0 C0.6875 1.8125 0.6875 1.8125 1 4 C-0.125 5.75 -0.125 5.75 -2 7 C-4.6875 7.1875 -4.6875 7.1875 -7 7 C-7 6.34 -7 5.68 -7 5 C-5.02 4.67 -3.04 4.34 -1 4 C-0.67 2.68 -0.34 1.36 0 0 Z " fill="#262624" transform="translate(572,529)"/>
<path d="M0 0 C3.60502045 0.59831222 3.90757505 0.87419938 6.25 4.0625 C7.11625 5.5165625 7.11625 5.5165625 8 7 C7.01 7 6.02 7 5 7 C3.61328125 5.46875 3.61328125 5.46875 2.3125 3.5 C1.87550781 2.8503125 1.43851563 2.200625 0.98828125 1.53125 C0.49908203 0.77328125 0.49908203 0.77328125 0 0 Z " fill="#1D1C1C" transform="translate(175,453)"/>
<path d="M0 0 C1.98 1.65 3.96 3.3 6 5 C5.34 5.66 4.68 6.32 4 7 C2.35 5.02 0.7 3.04 -1 1 C-0.67 0.67 -0.34 0.34 0 0 Z " fill="#161615" transform="translate(868,510)"/>
<path d="M0 0 C2.0625 0.4375 2.0625 0.4375 4 1 C3.01 1.495 3.01 1.495 2 2 C1.01 3.485 1.01 3.485 0 5 C-0.99 5.33 -1.98 5.66 -3 6 C-1.125 1.125 -1.125 1.125 0 0 Z " fill="#2F2D2A" transform="translate(840,500)"/>
</svg>
